<svg width="124" height="44" viewBox="0 0 124 44" fill="none" xmlns="http://www.w3.org/2000/svg">
<path d="M41.9339 42.6667H26.1871L19.4253 26.9375H14.948V42.6667H0.745605V1.53663H24.9301C30.2637 1.53663 34.4055 2.64678 37.3557 4.86709C40.3059 7.0874 41.781 10.0156 41.781 13.6516C41.8206 15.8701 41.2542 18.0529 40.151 19.9341C39.0683 21.7521 36.8766 23.3537 33.5757 24.739L41.9339 42.6667ZM14.948 18.14H21.0186C22.8016 18.14 24.239 17.8138 25.3216 17.1614C25.8263 16.8877 26.2475 16.4661 26.5357 15.9461C26.8238 15.4262 26.967 14.8294 26.9486 14.2257C26.9486 11.5965 25.1299 10.2809 21.4927 10.2787H14.948V18.14ZM77.6632 11.391V1.53663H45.0197V11.391H54.6133V42.6667H68.0696V11.391H77.6632ZM77.9018 30.7638C80.5523 39.121 87.5128 43.2995 98.7834 43.2995C104.955 43.2995 109.939 42.0089 113.735 39.4276C117.531 36.8463 119.43 33.4756 119.43 29.3155C119.467 26.8034 118.635 24.3648 117.093 22.4654C115.55 20.5391 113.53 19.1148 111.264 18.3553C108.934 17.5572 105 16.6363 99.4623 15.5924C97.45 15.214 96.0942 14.8139 95.3949 14.392C95.078 14.2303 94.8113 13.975 94.6264 13.6564C94.4416 13.3378 94.3463 12.9693 94.352 12.5947C94.352 10.8898 95.9005 10.0362 98.9975 10.034C102.726 10.034 105.202 11.4106 106.423 14.1637L118.185 10.9996C115.141 4.27124 108.911 0.905983 99.496 0.903809C93.2816 0.903809 88.519 2.19011 85.2079 4.76271C81.8969 7.33531 80.2413 10.5603 80.2413 14.4377C80.2413 17.4517 81.3933 20.0744 83.6971 22.3055C86.001 24.5367 91.2112 26.3428 99.3278 27.7237C101.45 28.1042 102.924 28.5392 103.75 29.0284C104.576 29.5177 104.983 30.206 104.973 31.0933C104.973 32.783 103.187 33.6267 99.6152 33.6246C95.0279 33.6246 92.1807 31.9675 91.0736 28.6533L77.8865 30.7606L77.9018 30.7638ZM116.598 2.14988H115.332V1.57577H118.469V2.14988H117.209V5.92723H116.598V2.14988ZM122.616 2.47607L121.295 5.92723H121.038L119.717 2.46955V5.92723H119.105V1.57577H119.98L121.167 4.70073L122.353 1.57577H123.228V5.92723H122.616V2.47607Z" fill="#0091EA"/>
</svg>
