<svg width="219" height="38" viewBox="0 0 219 38" fill="none" xmlns="http://www.w3.org/2000/svg">
<g clip-path="url(#clip0_5_209)">
<path d="M43.2979 0.846191H80.3132V37.9425H43.2979V0.846191ZM0.730957 0.846191H37.7463V37.9425H0.730957V0.846191ZM85.8648 0.846191H122.88V37.9425H85.8648V0.846191ZM130.363 3.24805C130.364 3.71942 130.226 4.18058 129.965 4.57315C129.705 4.96572 129.334 5.27204 128.9 5.45334C128.466 5.63464 127.988 5.68276 127.526 5.59161C127.065 5.50046 126.641 5.27414 126.308 4.9413C125.975 4.60846 125.748 4.18406 125.656 3.72185C125.563 3.25963 125.61 2.78038 125.79 2.34476C125.969 1.90915 126.274 1.53676 126.665 1.27474C127.056 1.01273 127.516 0.872862 127.986 0.87286C128.615 0.873297 129.218 1.12347 129.664 1.56862C130.109 2.01376 130.36 2.61763 130.363 3.24805ZM129.947 3.24805C129.946 2.85959 129.83 2.48014 129.614 2.15763C129.398 1.83512 129.091 1.58402 128.733 1.43605C128.375 1.28808 127.98 1.24987 127.6 1.32626C127.22 1.40265 126.871 1.59021 126.598 1.86524C126.324 2.14027 126.138 2.49044 126.062 2.8715C125.987 3.25257 126.026 3.64744 126.175 4.00623C126.323 4.36502 126.575 4.67164 126.897 4.88736C127.22 5.10307 127.598 5.2182 127.986 5.2182C128.507 5.21732 129.006 5.00931 129.373 4.63988C129.741 4.27045 129.947 3.76983 129.947 3.24805ZM129.002 2.84468C129.013 2.99662 128.972 3.1478 128.886 3.27304C128.799 3.39829 128.672 3.49006 128.527 3.53307L129.057 4.39814H128.455L127.979 3.58307H127.552V4.39814H127.031V2.11296H128.169C128.696 2.11296 129.001 2.39298 129.001 2.84468H129.002ZM128.069 3.17804C128.327 3.17804 128.462 3.0547 128.462 2.84468C128.462 2.63467 128.327 2.52299 128.069 2.52299H127.554V3.17471L128.069 3.17804Z" fill="#0046DD"/>
<path d="M93.3427 7.46482H115.449V12.9403H107.704V31.2067H101.101V12.9403H93.3427V7.46482ZM17.9084 7.46482H8.59473V31.2067H17.9084C21.0499 31.2067 24.0628 29.956 26.2841 27.7298C28.5055 25.5035 29.7535 22.4841 29.7535 19.3358C29.7535 16.1874 28.5055 13.168 26.2841 10.9417C24.0628 8.7155 21.0499 7.46482 17.9084 7.46482ZM16.7974 13.1319C17.6247 13.113 18.4473 13.2605 19.2167 13.5657C19.9861 13.8708 20.6867 14.3275 21.2769 14.9087C21.8672 15.4899 22.3352 16.1837 22.6533 16.9493C22.9714 17.7149 23.1331 18.5366 23.1289 19.3658C23.1247 20.1951 22.9546 21.0151 22.6287 21.7774C22.3028 22.5396 21.8278 23.2287 21.2316 23.8038C20.6355 24.3789 19.9303 24.8283 19.1578 25.1256C18.3854 25.4229 17.5613 25.562 16.7342 25.5346H15.1443V13.1319H16.7974ZM75.2941 31.2034L65.3235 7.46149H58.27L48.291 31.2034H54.7541L56.3707 27.3547H67.2112L68.8277 31.2034H75.2941ZM64.9143 22.3693H58.6758L61.7959 14.9437L64.9143 22.3693Z" fill="white"/>
<path d="M138.297 11.3687H143.719V13.2888H138.297V17.5675H135.611V6.81329H144.007V8.80345H138.297V11.3687ZM147.32 10.8203H147.383C147.624 10.364 147.991 9.98697 148.44 9.73399C148.889 9.48102 149.402 9.36282 149.916 9.3935C150.084 9.39181 150.252 9.41141 150.415 9.45184V11.6703C150.118 11.6346 149.819 11.6146 149.52 11.6103C148.318 11.6103 147.42 12.0904 147.42 13.6505V17.5725H144.925V9.58518H147.321L147.32 10.8203Z" fill="white"/>
<path d="M159.06 15.1773C158.804 15.9385 158.344 16.6144 157.731 17.1313C157.117 17.6481 156.373 17.986 155.581 18.108C154.789 18.2299 153.978 18.1313 153.238 17.8228C152.498 17.5143 151.857 17.0079 151.385 16.3588C150.912 15.7098 150.627 14.9431 150.56 14.1426C150.493 13.3421 150.647 12.5386 151.005 11.8198C151.363 11.1011 151.911 10.4948 152.59 10.0672C153.268 9.63954 154.051 9.40709 154.853 9.3952C155.463 9.33449 156.08 9.41686 156.654 9.63582C157.227 9.85477 157.742 10.2043 158.158 10.6569C158.574 11.1094 158.879 11.6526 159.049 12.2436C159.22 12.8346 159.251 13.4572 159.14 14.0622H153.108C153.13 15.324 153.811 16.1407 154.859 16.1407C155.222 16.1792 155.587 16.0863 155.888 15.8787C156.189 15.6712 156.405 15.3627 156.499 15.009L159.06 15.1773ZM153.131 12.6188H156.582C156.568 12.1694 156.38 11.7432 156.058 11.4303C155.736 11.1173 155.305 10.9423 154.857 10.9423C154.408 10.9423 153.977 11.1173 153.655 11.4303C153.333 11.7432 153.145 12.1694 153.131 12.6188ZM162.531 6.66165V8.53846H160.037V6.66498L162.531 6.66165ZM162.531 9.58188V17.5692H160.037V9.58188H162.531ZM171.968 16.9475C171.968 19.631 170.084 20.5294 167.689 20.5294C166.785 20.6579 165.865 20.4622 165.092 19.977C164.318 19.4918 163.741 18.7482 163.461 17.8775L165.956 17.6592C166.06 18.0277 166.292 18.3465 166.612 18.5571C166.931 18.7677 167.315 18.856 167.694 18.8059C168.748 18.8059 169.473 18.2909 169.473 16.8975V16.1291H169.41C169.113 16.489 168.733 16.7707 168.302 16.9496C167.872 17.1286 167.404 17.1994 166.94 17.1558C165.973 17.0632 165.075 16.6106 164.424 15.8872C163.773 15.1638 163.416 14.2222 163.423 13.248C163.431 12.2738 163.802 11.3378 164.464 10.6246C165.126 9.91143 166.031 9.47278 167 9.3952C167.485 9.35083 167.972 9.43534 168.414 9.64019C168.855 9.84504 169.235 10.163 169.515 10.562H169.578V9.58521H171.975L171.968 16.9475ZM169.593 13.2672C169.629 13.0075 169.609 12.7432 169.535 12.4919C169.46 12.2407 169.333 12.0084 169.161 11.8106C168.989 11.6129 168.777 11.4544 168.539 11.3458C168.301 11.2372 168.043 11.181 167.781 11.181C167.52 11.181 167.261 11.2372 167.023 11.3458C166.785 11.4544 166.573 11.6129 166.401 11.8106C166.23 12.0084 166.102 12.2407 166.028 12.4919C165.953 12.7432 165.933 13.0075 165.969 13.2672C165.969 14.5756 166.681 15.3873 167.785 15.3873C168.89 15.3873 169.595 14.5723 169.595 13.2672H169.593ZM175.639 10.6536C175.941 10.2485 176.336 9.92242 176.79 9.70305C177.245 9.48367 177.746 9.37749 178.25 9.39353C178.64 9.36203 179.032 9.41681 179.399 9.554C179.765 9.69119 180.097 9.90745 180.371 10.1875C180.646 10.4675 180.855 10.8044 180.985 11.1744C181.114 11.5445 181.161 11.9385 181.122 12.3288V17.5692H178.627V12.9021C178.627 11.7254 178.117 11.297 177.205 11.297C176.374 11.297 175.581 11.9837 175.581 13.2972V17.5558H173.086V6.64832H175.581V10.6486L175.639 10.6536ZM187.051 15.7874V17.5692C186.53 17.7007 185.994 17.764 185.456 17.7575C183.668 17.7575 182.892 17.3058 182.892 15.639V11.1287H181.59V9.58188H182.892V7.36837H185.387V9.58188H187.088V11.1287H185.387V15.129C185.387 15.7574 185.648 15.8774 186.24 15.8774C186.513 15.8801 186.785 15.8499 187.051 15.7874ZM142.943 31.1852C141.987 31.9346 140.805 32.337 139.591 32.327C137.295 32.327 135.156 31.3269 135.156 29.1468C135.166 28.4802 135.389 27.8344 135.79 27.3031C136.192 26.7717 136.752 26.3824 137.389 26.1915L137.764 26.0248C137.419 25.7362 137.137 25.3805 136.934 24.9794C136.731 24.5783 136.612 24.1401 136.583 23.6913C136.583 22.2212 138.031 21.1178 140.057 21.1178C142.083 21.1178 143.531 22.2195 143.531 23.6913C143.531 24.8064 142.68 25.4265 141.625 25.9798L140.973 26.3215L142.687 28.0183C142.837 27.5247 142.914 27.0112 142.913 26.4949H145.035C145.052 27.5768 144.792 28.6451 144.282 29.5985L146.823 32.1153H143.876L142.943 31.1852ZM139.591 30.5369C140.315 30.5471 141.016 30.2902 141.562 29.8151L139.054 27.3249L138.905 27.4033C138.073 27.84 137.631 28.3634 137.631 29.0701C137.631 29.9468 138.354 30.5385 139.591 30.5385V30.5369ZM138.908 23.7747C138.908 24.1597 139.156 24.4931 139.751 25.1081L140.065 24.9631C140.789 24.6297 141.205 24.3264 141.205 23.7797C141.174 23.496 141.04 23.2336 140.828 23.043C140.616 22.8524 140.342 22.7469 140.057 22.7469C139.772 22.7469 139.498 22.8524 139.286 23.043C139.074 23.2336 138.94 23.496 138.91 23.7797L138.908 23.7747ZM153.248 29.7035L152.416 32.1137H149.589L153.688 21.3561H157.261L161.361 32.1137H158.492L157.645 29.7035H153.248ZM155.461 23.493H155.398L153.901 27.8267H156.991L155.461 23.493ZM164.364 25.1981C164.671 24.786 165.074 24.4555 165.538 24.2355C166.002 24.0156 166.513 23.9129 167.025 23.9363C167.419 23.899 167.816 23.9493 168.189 24.0836C168.561 24.2179 168.899 24.4329 169.179 24.7133C169.459 24.9937 169.673 25.3325 169.807 25.7056C169.941 26.0787 169.991 26.4768 169.954 26.8716V32.112H167.459V27.455C167.459 26.2799 166.949 25.8498 166.037 25.8498C165.184 25.8498 164.412 26.4682 164.412 27.7883V32.122H161.918V24.1214H164.314V25.1931L164.364 25.1981ZM179.133 30.3935V32.112C178.777 32.1958 178.411 32.2344 178.045 32.227C177.003 32.227 176.399 31.9636 176.116 31.3103H176.053C175.73 31.6467 175.338 31.9093 174.905 32.0801C174.472 32.251 174.007 32.3261 173.542 32.3003C171.983 32.3003 170.669 31.4286 170.669 29.9452C170.669 28.235 171.847 27.595 173.961 27.3266C175.559 27.1199 175.97 26.9049 175.97 26.4399C175.97 25.8932 175.554 25.5648 174.771 25.5648C174.436 25.5532 174.108 25.6567 173.841 25.8581C173.574 26.0595 173.384 26.3466 173.302 26.6716L170.974 26.3965C171.219 25.6002 171.738 24.9165 172.438 24.4663C173.138 24.0161 173.974 23.8284 174.799 23.9363C177.305 23.9363 178.458 24.9798 178.458 26.6032V29.9868C178.458 30.3785 178.588 30.4535 178.817 30.4535C178.925 30.4496 179.031 30.4294 179.133 30.3935ZM175.973 28.27C175.502 28.4905 174.995 28.6227 174.476 28.6601C173.751 28.7817 173.23 29.1334 173.23 29.7901C173.227 29.9225 173.252 30.054 173.304 30.1758C173.355 30.2976 173.432 30.4069 173.53 30.4962C173.627 30.5855 173.743 30.6528 173.869 30.6935C173.994 30.7341 174.127 30.7472 174.258 30.7319C174.485 30.7401 174.711 30.7018 174.923 30.6192C175.134 30.5366 175.326 30.4115 175.488 30.2516C175.649 30.0917 175.776 29.9004 175.861 29.6895C175.946 29.4786 175.987 29.2525 175.981 29.0251L175.973 28.27ZM182.238 21.2045V32.112H179.743V21.2045H182.238ZM188.902 32.112C187.92 34.7439 186.817 35.0722 185.293 35.0722C184.793 35.0766 184.293 35.046 183.797 34.9806V33.0487C184.146 33.1108 184.5 33.1409 184.854 33.1387C185.137 33.1844 185.426 33.1227 185.665 32.9657C185.905 32.8088 186.077 32.5679 186.148 32.2903L186.241 32.0603L182.902 24.1214H185.623L187.497 29.2884H187.56L189.223 24.1214H191.903L188.902 32.112ZM197.463 30.3302V32.112C196.941 32.2431 196.405 32.3064 195.868 32.3003C194.078 32.3003 193.303 31.8486 193.303 30.1835V25.6715H191.999V24.1247H193.303V21.9129H195.798V24.1247H197.499V25.6715H195.805V29.6718C195.805 30.3002 196.064 30.4219 196.658 30.4219C196.929 30.4231 197.199 30.3923 197.463 30.3302ZM200.889 21.2045V23.0763H198.394V21.2045H200.889ZM200.889 24.1247V32.112H198.394V24.1247H200.889ZM207.714 29.0901L210.256 29.3384C209.966 30.2827 209.353 31.0938 208.523 31.628C207.694 32.1622 206.703 32.385 205.726 32.257C204.749 32.1289 203.848 31.6582 203.184 30.9284C202.52 30.1985 202.135 29.2566 202.097 28.2694C202.06 27.2823 202.372 26.3137 202.979 25.5354C203.586 24.757 204.448 24.219 205.413 24.0168C206.378 23.8146 207.383 23.9612 208.25 24.4307C209.117 24.9001 209.791 25.6621 210.151 26.5816L207.683 27.0233C207.608 26.6458 207.405 26.3061 207.107 26.0628C206.81 25.8194 206.437 25.6875 206.053 25.6898C204.997 25.6898 204.31 26.4582 204.31 28.13C204.31 29.8018 204.997 30.5619 206.053 30.5619C206.462 30.5643 206.858 30.4155 207.164 30.144C207.471 29.8725 207.667 29.4973 207.714 29.0901ZM216.115 26.5532C216.044 26.2172 215.853 25.919 215.577 25.7155C215.301 25.512 214.959 25.4174 214.618 25.4498C213.903 25.4498 213.383 25.7432 213.383 26.2832C213.383 26.7982 213.93 26.9499 214.77 27.0899L215.639 27.2199C217.166 27.4616 218.665 27.8867 218.665 29.7201C218.665 31.5153 216.942 32.302 214.673 32.302C212.461 32.302 210.868 31.3919 210.585 29.7835L212.935 29.5151C213.009 29.9134 213.233 30.2679 213.561 30.5047C213.89 30.7416 214.296 30.8426 214.696 30.7869C215.556 30.7869 216.11 30.4252 216.11 29.8285C216.11 29.3401 215.538 29.1134 214.632 28.9717L213.677 28.8284C212.318 28.625 210.878 28.1617 210.878 26.4165C210.878 24.8097 212.631 23.9363 214.593 23.9363C216.599 23.9363 218.131 24.8114 218.419 26.3015L216.115 26.5532Z" fill="white"/>
</g>
<defs>
<clipPath id="clip0_5_209">
<rect width="217.941" height="37.0963" fill="white" transform="translate(0.730957 0.846191)"/>
</clipPath>
</defs>
</svg>
