<svg width="60" height="43" viewBox="0 0 60 43" fill="none" xmlns="http://www.w3.org/2000/svg">
<path d="M16.9881 26.7359L10.5489 23.0182L11.3977 15.0147L9.56686 13.9577L5.95307 20.3648L0.145448 17.0118L9.59509 0.257775L19.4846 5.96747C21.6655 7.22666 23.1042 8.65672 23.8004 10.2576C24.4967 11.8586 24.4271 13.3996 23.5918 14.8807C23.0983 15.7937 22.3651 16.5492 21.4818 17.055C20.6214 17.54 19.3572 17.6749 17.6892 17.4599L16.9881 26.7359ZM11.5881 10.3741L14.0705 11.8073C14.7995 12.2282 15.4622 12.4347 16.0548 12.4245C16.3241 12.4322 16.5932 12.3599 16.8305 12.2161C17.0678 12.0723 17.2635 11.8631 17.3946 11.6128C17.9987 10.5418 17.5573 9.57654 16.0704 8.71693L13.3942 7.17182L11.5881 10.3741ZM38.784 22.4313L41.0481 18.4172L27.6995 10.7104L25.4355 14.7245L29.3585 16.9895L22.1729 29.7294L27.6754 32.9062L34.861 20.1663L38.784 22.4313ZM34.4307 30.379C33.5944 34.4089 35.4807 37.7543 40.0894 40.4152C42.6131 41.8722 44.9476 42.5231 47.093 42.3679C49.2385 42.2127 50.7891 41.2878 51.7448 39.5932C52.3371 38.5787 52.5573 37.389 52.3632 36.2513C52.1748 35.1024 51.6761 34.0453 50.9239 33.2009C50.1544 32.3256 48.7573 31.0217 46.7328 29.2892C45.9968 28.66 45.5344 28.1769 45.3453 27.84C45.2529 27.6993 45.2025 27.5323 45.2001 27.3589C45.1977 27.1855 45.2434 27.0129 45.3318 26.8616C45.7235 26.1671 46.5528 26.185 47.8197 26.9153C49.3446 27.7957 50.0404 28.9407 49.9073 30.3505L55.4439 31.8385C55.7451 28.3791 53.9708 25.5376 50.1212 23.3138C47.5801 21.8467 45.337 21.2463 43.392 21.5125C41.447 21.7787 40.0291 22.7015 39.1383 24.281C38.4458 25.5087 38.3143 26.849 38.7438 28.3018C39.1732 29.7545 40.8889 31.7203 43.8906 34.199C44.6711 34.8551 45.1739 35.3803 45.3991 35.7745C45.6244 36.1688 45.633 36.5454 45.425 36.9044C45.0368 37.5927 44.1126 37.5148 42.6524 36.6706C40.7766 35.5875 39.993 34.2403 40.3017 32.629L34.4252 30.374L34.4307 30.379ZM56.8281 27.8589L56.3104 27.56L56.4423 27.3262L57.7254 28.0669L57.5935 28.3008L57.0782 28.0033L56.2104 29.542L55.9603 29.3976L56.8281 27.8589ZM59.2143 29.4127L57.8811 30.5066L57.7761 30.446L58.0303 28.7256L57.2359 30.1341L56.9857 29.9897L57.9855 28.2171L58.3431 28.4236L58.1104 29.9767L59.3136 28.9839L59.6713 29.1904L58.6715 30.9629L58.4214 30.8185L59.2143 29.4127Z" fill="#80CFFF"/>
</svg>
