<svg width="30" height="30" viewBox="0 0 30 30" fill="none" xmlns="http://www.w3.org/2000/svg">
<path d="M12.1668 16.4167H2.25016C1.87444 16.4167 1.5141 16.566 1.24843 16.8316C0.982752 17.0973 0.833496 17.4576 0.833496 17.8334V27.75C0.833496 28.1258 0.982752 28.4861 1.24843 28.7518C1.5141 29.0175 1.87444 29.1667 2.25016 29.1667H12.1668C12.5426 29.1667 12.9029 29.0175 13.1686 28.7518C13.4342 28.4861 13.5835 28.1258 13.5835 27.75V17.8334C13.5835 17.4576 13.4342 17.0973 13.1686 16.8316C12.9029 16.566 12.5426 16.4167 12.1668 16.4167ZM10.7502 26.3334H3.66683V19.25H10.7502V26.3334ZM27.7502 0.833374H17.8335C17.4578 0.833374 17.0974 0.982629 16.8318 1.24831C16.5661 1.51398 16.4168 1.87432 16.4168 2.25004V12.1667C16.4168 12.5424 16.5661 12.9028 16.8318 13.1684C17.0974 13.4341 17.4578 13.5834 17.8335 13.5834H27.7502C28.1259 13.5834 28.4862 13.4341 28.7519 13.1684C29.0176 12.9028 29.1668 12.5424 29.1668 12.1667V2.25004C29.1668 1.87432 29.0176 1.51398 28.7519 1.24831C28.4862 0.982629 28.1259 0.833374 27.7502 0.833374ZM26.3335 10.75H19.2502V3.66671H26.3335V10.75ZM27.7502 16.4167H17.8335C17.4578 16.4167 17.0974 16.566 16.8318 16.8316C16.5661 17.0973 16.4168 17.4576 16.4168 17.8334V27.75C16.4168 28.1258 16.5661 28.4861 16.8318 28.7518C17.0974 29.0175 17.4578 29.1667 17.8335 29.1667H27.7502C28.1259 29.1667 28.4862 29.0175 28.7519 28.7518C29.0176 28.4861 29.1668 28.1258 29.1668 27.75V17.8334C29.1668 17.4576 29.0176 17.0973 28.7519 16.8316C28.4862 16.566 28.1259 16.4167 27.7502 16.4167ZM26.3335 26.3334H19.2502V19.25H26.3335V26.3334ZM12.1668 0.833374H2.25016C1.87444 0.833374 1.5141 0.982629 1.24843 1.24831C0.982752 1.51398 0.833496 1.87432 0.833496 2.25004V12.1667C0.833496 12.5424 0.982752 12.9028 1.24843 13.1684C1.5141 13.4341 1.87444 13.5834 2.25016 13.5834H12.1668C12.5426 13.5834 12.9029 13.4341 13.1686 13.1684C13.4342 12.9028 13.5835 12.5424 13.5835 12.1667V2.25004C13.5835 1.87432 13.4342 1.51398 13.1686 1.24831C12.9029 0.982629 12.5426 0.833374 12.1668 0.833374ZM10.7502 10.75H3.66683V3.66671H10.7502V10.75Z" fill="#002442"/>
</svg>
