<svg width="66" height="66" viewBox="0 0 66 66" fill="none" xmlns="http://www.w3.org/2000/svg">
<path d="M9.62504 32.316C9.62441 28.3332 10.6723 24.4204 12.6633 20.971C14.6542 17.5216 17.5182 14.657 20.9673 12.6654C24.4163 10.6737 28.3289 9.62509 32.3116 9.62493C36.2944 9.62478 40.2071 10.6731 43.6563 12.6645C44.1298 12.9337 44.6905 13.0047 45.2161 12.862C45.7417 12.7193 46.1895 12.3745 46.4619 11.9028C46.7342 11.4311 46.8089 10.8709 46.6697 10.3443C46.5305 9.81779 46.1886 9.36768 45.7188 9.09223C40.6073 6.14113 34.665 4.95907 28.8132 5.72937C22.9615 6.49966 17.5275 9.17928 13.3538 13.3526C9.18023 17.526 6.50026 22.9599 5.72959 28.8115C4.95892 34.6632 6.1406 40.6056 9.09137 45.7173C12.0421 50.8289 16.5971 54.8241 22.0499 57.0832C27.5026 59.3423 33.5484 59.7391 39.2496 58.2121C44.9509 56.685 49.9889 53.3195 53.5825 48.6373C57.1761 43.9552 59.1243 38.2182 59.125 32.316C59.125 31.769 58.9077 31.2444 58.521 30.8576C58.1342 30.4708 57.6095 30.2535 57.0625 30.2535C56.5155 30.2535 55.9909 30.4708 55.6041 30.8576C55.2173 31.2444 55 31.769 55 32.316C55 38.3331 52.6098 44.1037 48.355 48.3585C44.1003 52.6132 38.3296 55.0035 32.3125 55.0035C26.2954 55.0035 20.5248 52.6132 16.2701 48.3585C12.0153 44.1037 9.62504 38.3331 9.62504 32.316Z" fill="#F7AB01"/>
<path d="M64.0254 14.5254C64.2171 14.3336 64.3692 14.1059 64.473 13.8554C64.5768 13.6048 64.6302 13.3363 64.6302 13.0651C64.6302 12.7939 64.5768 12.5254 64.473 12.2748C64.3692 12.0243 64.2171 11.7966 64.0254 11.6049C63.8336 11.4131 63.6059 11.261 63.3554 11.1572C63.1048 11.0534 62.8363 11 62.5651 11C62.2939 11 62.0254 11.0534 61.7748 11.1572C61.5243 11.261 61.2966 11.4131 61.1049 11.6049L33.6901 39.0237L22.7754 28.1049C22.5836 27.9131 22.3559 27.761 22.1054 27.6572C21.8548 27.5534 21.5863 27.5 21.3151 27.5C21.0439 27.5 20.7754 27.5534 20.5248 27.6572C20.2743 27.761 20.0466 27.9131 19.8549 28.1049C19.6631 28.2966 19.511 28.5243 19.4072 28.7748C19.3034 29.0254 19.25 29.2939 19.25 29.5651C19.25 29.8363 19.3034 30.1048 19.4072 30.3554C19.511 30.6059 19.6631 30.8336 19.8549 31.0254L32.2299 43.4004C32.4214 43.5924 32.649 43.7448 32.8996 43.8488C33.1502 43.9528 33.4188 44.0063 33.6901 44.0063C33.9614 44.0063 34.23 43.9528 34.4806 43.8488C34.7312 43.7448 34.9588 43.5924 35.1504 43.4004L64.0254 14.5254Z" fill="#F7AB01"/>
</svg>
