<svg width="26" height="25" viewBox="0 0 26 25" fill="none" xmlns="http://www.w3.org/2000/svg">
<path d="M22.1 3.90003H13.936L13.52 2.60003C13.2503 1.83723 12.7501 1.17718 12.0886 0.711338C11.4271 0.245493 10.6371 -0.00308997 9.828 2.89947e-05H3.9C2.86566 2.89947e-05 1.87368 0.410921 1.14228 1.14231C0.410892 1.8737 0 2.86568 0 3.90003V20.8C0 21.8344 0.410892 22.8264 1.14228 23.5577C1.87368 24.2891 2.86566 24.7 3.9 24.7H22.1C23.1343 24.7 24.1263 24.2891 24.8577 23.5577C25.5891 22.8264 26 21.8344 26 20.8V7.80003C26 6.76568 25.5891 5.7737 24.8577 5.04231C24.1263 4.31092 23.1343 3.90003 22.1 3.90003ZM23.4 20.8C23.4 21.1448 23.263 21.4755 23.0192 21.7193C22.7754 21.9631 22.4448 22.1 22.1 22.1H3.9C3.55522 22.1 3.22456 21.9631 2.98076 21.7193C2.73696 21.4755 2.6 21.1448 2.6 20.8V3.90003C2.6 3.55525 2.73696 3.22459 2.98076 2.98079C3.22456 2.73699 3.55522 2.60003 3.9 2.60003H9.828C10.1005 2.59933 10.3664 2.68429 10.588 2.84292C10.8096 3.00155 10.9758 3.22582 11.063 3.48403L11.765 5.61603C11.8522 5.87424 12.0184 6.0985 12.24 6.25713C12.4616 6.41576 12.7275 6.50073 13 6.50003H22.1C22.4448 6.50003 22.7754 6.63699 23.0192 6.88079C23.263 7.12459 23.4 7.45525 23.4 7.80003V20.8Z" fill="#002442"/>
</svg>
