<svg width="30" height="16" viewBox="0 0 30 16" fill="none" xmlns="http://www.w3.org/2000/svg">
<path d="M28.7559 1.32749C28.6242 1.19471 28.4675 1.08932 28.2949 1.0174C28.1223 0.945477 27.9371 0.908447 27.7501 0.908447C27.5631 0.908447 27.3779 0.945477 27.2053 1.0174C27.0326 1.08932 26.8759 1.19471 26.7442 1.32749L17.8334 10.2525L11.7559 4.16083C11.6242 4.02805 11.4675 3.92265 11.2949 3.85073C11.1223 3.77881 10.9371 3.74178 10.7501 3.74178C10.5631 3.74178 10.3779 3.77881 10.2053 3.85073C10.0326 3.92265 9.87594 4.02805 9.74424 4.16083L1.24424 12.6608C1.11146 12.7925 1.00607 12.9492 0.934147 13.1218C0.862224 13.2945 0.825195 13.4796 0.825195 13.6667C0.825195 13.8537 0.862224 14.0388 0.934147 14.2115C1.00607 14.3841 1.11146 14.5408 1.24424 14.6725C1.37594 14.8053 1.53263 14.9107 1.70526 14.9826C1.87789 15.0545 2.06306 15.0915 2.25008 15.0915C2.43709 15.0915 2.62226 15.0545 2.79489 14.9826C2.96753 14.9107 3.12421 14.8053 3.25591 14.6725L10.7501 7.16416L16.8276 13.2558C16.9593 13.3886 17.116 13.494 17.2886 13.5659C17.4612 13.6378 17.6464 13.6749 17.8334 13.6749C18.0204 13.6749 18.2056 13.6378 18.3782 13.5659C18.5509 13.494 18.7075 13.3886 18.8392 13.2558L28.7559 3.33916C28.8887 3.20746 28.9941 3.05078 29.066 2.87815C29.1379 2.70551 29.175 2.52034 29.175 2.33333C29.175 2.14631 29.1379 1.96115 29.066 1.78851C28.9941 1.61588 28.8887 1.45919 28.7559 1.32749Z" fill="#002442"/>
</svg>
