<svg width="120" height="60" viewBox="0 0 120 60" fill="none" xmlns="http://www.w3.org/2000/svg">
<path fill-rule="evenodd" clip-rule="evenodd" d="M52.5139 0.0523952L50.9888 0.979895C50.8807 1.04563 50.8146 1.16402 50.8146 1.29179V18.8102C50.8146 18.9753 50.7043 19.1194 50.5472 19.163C49.9542 19.3274 49.6309 19.4445 49.2929 19.6709C48.8641 19.9581 48.6615 20.4797 48.6615 21.0006V25.531C48.6615 25.5967 48.6265 25.6572 48.57 25.6895L47.409 26.3514C47.296 26.4158 47.2261 26.537 47.2261 26.6684V29.0018C47.2261 29.2027 47.3867 29.3655 47.5849 29.3655H49.8277C50.0259 29.3655 50.1873 29.5277 50.1955 29.7284C50.2235 30.4116 50.3388 31.8206 50.8146 31.8206H53.7751C54.1172 31.8206 54.2506 30.3923 54.2946 29.7146C54.3073 29.5193 54.4662 29.3655 54.6592 29.3655H67.0782C67.2661 29.3655 67.4227 29.5115 67.4438 29.7007C67.5189 30.3727 67.7366 31.8206 68.2189 31.8206H70.9103C71.3236 31.8206 71.5253 30.3728 71.5967 29.7008C71.6168 29.5115 71.7733 29.3655 71.9612 29.3655H74.2296C74.4278 29.3655 74.5885 29.2027 74.5885 29.0018V26.7263C74.5885 26.5657 74.4845 26.4241 74.3327 26.3779L72.9221 25.949C72.8462 25.9259 72.7942 25.8551 72.7942 25.7748V20.6361C72.7942 19.454 71.9868 19.1812 71.0897 19.0903V1.63838C71.0897 1.52001 71.0329 1.40904 70.9373 1.34092L69.2328 0.125134C68.995 -0.0444486 68.6674 0.127917 68.6674 0.422591V5.54149C68.6674 5.71626 68.4479 5.79042 68.3445 5.6506L67.3217 4.26845C66.644 3.35257 65.5804 2.81355 64.4509 2.81355H57.3244C56.2171 2.81355 55.1717 3.33175 54.4918 4.21774L53.3785 5.66868C53.2736 5.80537 53.0574 5.73019 53.0574 5.55703V0.364287C53.0574 0.0815656 52.7531 -0.093064 52.5139 0.0523952ZM53.865 8.90566H68.0396V13.816H53.865V8.90566ZM51.7116 22.9093C51.5134 22.9093 51.3528 23.0721 51.3528 23.273V24.1823C51.3528 24.3832 51.5134 24.5461 51.7116 24.5461H54.0442C54.2424 24.5461 54.403 24.3832 54.403 24.1823V23.273C54.403 23.0721 54.2424 22.9093 54.0442 22.9093H51.7116ZM67.5012 23.273C67.5012 23.0721 67.6619 22.9093 67.8601 22.9093H70.1926C70.3908 22.9093 70.5515 23.0721 70.5515 23.273V24.1823C70.5515 24.3832 70.3908 24.5461 70.1926 24.5461H67.8601C67.6619 24.5461 67.5012 24.3832 67.5012 24.1823V23.273ZM65.1686 16.9079H56.7356V25.2736H65.1686V16.9079ZM64.4509 17.9991H57.2739V18.5447H64.4509V17.9991ZM57.2739 21.4545H64.4509V22.0001H57.2739V21.4545ZM64.4509 19.8177H57.2739V20.3633H64.4509V19.8177ZM57.2739 23.2731H64.4509V23.8187H57.2739V23.2731ZM80.8411 27.306L78.1772 30.0932H118.279L81.1264 27.1964C81.0199 27.1881 80.9154 27.2283 80.8411 27.306ZM43.6377 30.0927L40.8836 27.3012C40.8095 27.2261 40.7068 27.1876 40.6023 27.1958L3.44638 30.0927H43.6377ZM56.8268 47.1879H54.3604V39.9439H56.8268V47.1879ZM54.2973 38.1409C54.2973 37.7658 54.4003 37.4866 54.6064 37.3034C54.8124 37.1201 55.1446 37.0284 55.603 37.0284C56.0614 37.0284 56.3957 37.1222 56.606 37.3098C56.8162 37.4973 56.9214 37.7744 56.9214 38.1409C56.9214 38.8741 56.4819 39.2406 55.603 39.2406C54.7325 39.2406 54.2973 38.8741 54.2973 38.1409ZM34.0341 43.1152C34.3327 42.6335 34.5871 42.2584 34.7974 41.9899L36.3996 39.9439H39.1498L36.6708 43.0256L39.3075 47.1879H36.4879L34.9235 44.5921L34.1224 45.2123V47.1879H31.6434V37.2394H34.1224V41.1523C34.1224 41.8215 34.0761 42.4758 33.9836 43.1152H34.0341ZM2.25193 47.1879H4.74357V39.9056H6.98919V37.8404H0V39.9056H2.25193V47.1879ZM13.5375 39.8672C13.3441 39.8331 13.1401 39.8161 12.9257 39.8161C12.5514 39.8161 12.1792 39.9354 11.8091 40.1741C11.4433 40.4085 11.1573 40.7176 10.9513 41.1012H10.8314L10.4466 39.9439H8.61103V47.1879H11.0774V43.6266C11.0774 43.1578 11.1994 42.7997 11.4433 42.5525C11.6872 42.301 12.0783 42.1753 12.6166 42.1753C12.974 42.1753 13.2537 42.2009 13.4555 42.252L13.6763 39.8928L13.5375 39.8672ZM20.2183 47.1879L19.9092 46.2864H19.7642C19.5581 46.6189 19.27 46.8746 18.9 47.0536C18.5341 47.2284 18.1031 47.3158 17.6068 47.3158C16.8205 47.3158 16.2086 47.0856 15.7712 46.6252C15.3339 46.1606 15.1152 45.5064 15.1152 44.6624V39.9439H17.5816V43.9016C17.5816 44.3747 17.6468 44.7327 17.7772 44.9757C17.9117 45.2187 18.1304 45.3401 18.4332 45.3401C18.8579 45.3401 19.1607 45.1718 19.3415 44.835C19.5223 44.494 19.6128 43.9208 19.6128 43.1152V39.9439H22.0792V47.1879H20.2183ZM24.8238 46.3567C25.4294 46.9961 26.3167 47.3158 27.4858 47.3158C28.3773 47.3158 29.1405 47.1026 29.7755 46.6764V44.688C29.1111 45.1142 28.4172 45.3273 27.6939 45.3273C26.8487 45.3273 26.426 44.7477 26.426 43.5883C26.426 43.0129 26.5354 42.5674 26.754 42.252C26.9727 41.9366 27.2818 41.7789 27.6813 41.7789C27.9547 41.7789 28.2175 41.8194 28.4698 41.9004C28.7221 41.9771 28.9976 42.0815 29.2961 42.2137L30.0216 40.3659C29.2898 39.9993 28.5098 39.8161 27.6813 39.8161C26.4786 39.8161 25.5513 40.1464 24.8995 40.8071C24.2477 41.4677 23.9218 42.3991 23.9218 43.6011C23.9218 44.7988 24.2225 45.7174 24.8238 46.3567ZM51.1111 45.922C51.9605 45.078 52.3853 43.876 52.3853 42.316C52.3853 40.8667 51.9816 39.7585 51.1742 38.9913C50.3709 38.224 49.2292 37.8404 47.7489 37.8404H44.5571V47.1879H47.5408C49.0757 47.1879 50.2658 46.7659 51.1111 45.922ZM49.2944 40.5002C49.6308 40.9136 49.799 41.5487 49.799 42.4055C49.799 43.3219 49.6224 44.0039 49.2692 44.4514C48.9159 44.8947 48.3608 45.1164 47.6039 45.1164H47.0488V39.88H47.7742C48.4554 39.88 48.9622 40.0867 49.2944 40.5002ZM63.7346 46.7212C64.2561 46.3247 64.5168 45.7387 64.5168 44.9629C64.5168 44.575 64.458 44.2468 64.3402 43.9783C64.2267 43.7055 64.0458 43.4689 63.7977 43.2686C63.5538 43.0683 63.1817 42.8637 62.6812 42.6548C62.0084 42.3863 61.6005 42.2094 61.4575 42.1241C61.3187 42.0346 61.2493 41.9281 61.2493 41.8045C61.2493 41.6041 61.4512 41.504 61.8549 41.504C62.0862 41.504 62.3848 41.5572 62.7506 41.6638C63.1165 41.7661 63.4634 41.8918 63.7914 42.041L64.4601 40.4298C64.0143 40.2295 63.5833 40.0782 63.1669 39.9759C62.7548 39.8693 62.3133 39.8161 61.8423 39.8161C60.9045 39.8161 60.1791 40.0036 59.666 40.3787C59.153 40.7538 58.8965 41.2781 58.8965 41.9515C58.8965 42.4843 59.0268 42.9255 59.2876 43.275C59.5483 43.6203 60.0067 43.9293 60.6627 44.2021C61.3818 44.4919 61.8149 44.688 61.9621 44.7903C62.1135 44.8883 62.1892 45.0013 62.1892 45.1291C62.1892 45.3764 61.9222 45.5 61.3881 45.5C61.0306 45.5 60.6227 45.4446 60.1644 45.3337C59.7102 45.2229 59.2918 45.0823 58.9091 44.9118V46.913C59.317 47.0664 59.7165 47.1708 60.1076 47.2262C60.4987 47.2859 60.9592 47.3158 61.489 47.3158C62.4646 47.3158 63.2132 47.1176 63.7346 46.7212ZM70.6236 47.3158C70.262 47.3158 69.9381 47.2561 69.6522 47.1367C69.3662 47.0131 69.0824 46.7936 68.8006 46.4782H68.6871C68.7628 46.9854 68.8006 47.3008 68.8006 47.4244V50.3335H66.3342V39.9439H68.3401L68.6871 40.8646H68.8006C69.259 40.1656 69.8919 39.8161 70.6993 39.8161C71.4899 39.8161 72.1102 40.1485 72.5601 40.8135C73.0101 41.4784 73.2351 42.3905 73.2351 43.5499C73.2351 44.7178 72.9996 45.6385 72.5286 46.312C72.0618 46.9812 71.4268 47.3158 70.6236 47.3158ZM69.7973 41.7789C69.4356 41.7789 69.1812 41.911 69.034 42.1753C68.891 42.4353 68.8132 42.8232 68.8006 43.3389V43.5371C68.8006 44.1594 68.8826 44.6091 69.0466 44.8862C69.2106 45.1632 69.4693 45.3018 69.8225 45.3018C70.1379 45.3018 70.3671 45.1654 70.5101 44.8926C70.653 44.6155 70.7245 44.1594 70.7245 43.5243C70.7245 42.902 70.653 42.4566 70.5101 42.1881C70.3671 41.9153 70.1295 41.7789 69.7973 41.7789ZM79.2851 46.2288L79.7582 47.1879H81.4676V42.4374C81.4676 41.6105 81.2153 40.9669 80.7107 40.5066C80.2103 40.0462 79.5017 39.8161 78.5849 39.8161C77.3149 39.8161 76.2636 40.0334 75.431 40.4682L76.1438 42.1178C76.947 41.7597 77.6093 41.5807 78.1308 41.5807C78.7111 41.5807 79.0012 41.8791 79.0012 42.4758V42.5781L77.809 42.6165C76.804 42.6633 76.0365 42.8765 75.5067 43.2558C74.9768 43.6309 74.7119 44.2042 74.7119 44.9757C74.7119 45.7174 74.9053 46.2928 75.2922 46.702C75.6791 47.1112 76.2089 47.3158 76.8818 47.3158C77.4285 47.3158 77.8742 47.239 78.2191 47.0856C78.5639 46.9321 78.9024 46.6466 79.2346 46.2288H79.2851ZM78.6922 45.2634C78.4819 45.4552 78.2275 45.5511 77.9289 45.5511C77.4621 45.5511 77.2287 45.3295 77.2287 44.8862C77.2287 44.3108 77.6345 44.0081 78.4461 43.9783L79.0139 43.9527V44.5154C79.0139 44.8223 78.9066 45.0716 78.6922 45.2634ZM87.095 45.3401C87.4272 45.3401 87.8246 45.257 88.2872 45.0908V46.913C87.955 47.0579 87.6375 47.1602 87.3347 47.2199C87.0361 47.2838 86.685 47.3158 86.2813 47.3158C85.4529 47.3158 84.8557 47.1112 84.4898 46.702C84.124 46.2885 83.9411 45.6556 83.9411 44.8031V41.8173H83.0769V40.8007L84.1744 40.0143L84.8116 38.4926H86.4264V39.9439H88.18V41.8173H86.4264V44.6368C86.4264 45.1057 86.6493 45.3401 87.095 45.3401ZM90.5777 46.3567C91.1833 46.9961 92.0706 47.3158 93.2396 47.3158C94.1312 47.3158 94.8944 47.1026 95.5294 46.6764V44.688C94.865 45.1142 94.1711 45.3273 93.4478 45.3273C92.6025 45.3273 92.1799 44.7477 92.1799 43.5883C92.1799 43.0129 92.2893 42.5674 92.5079 42.252C92.7266 41.9366 93.0357 41.7789 93.4352 41.7789C93.7085 41.7789 93.9714 41.8194 94.2237 41.9004C94.476 41.9771 94.7514 42.0815 95.05 42.2137L95.7754 40.3659C95.0437 39.9993 94.2636 39.8161 93.4352 39.8161C92.2325 39.8161 91.3052 40.1464 90.6534 40.8071C90.0016 41.4677 89.6757 42.3991 89.6757 43.6011C89.6757 44.7988 89.9763 45.7174 90.5777 46.3567ZM101.895 47.1879V43.2366C101.895 42.2648 101.611 41.7789 101.043 41.7789C100.64 41.7789 100.341 41.9515 100.148 42.2968C99.9583 42.6378 99.8637 43.2068 99.8637 44.0039V47.1879H97.3973V37.2394H99.8637V38.6524C99.8637 39.2918 99.83 40.0206 99.7627 40.839H99.8763C100.112 40.4639 100.391 40.1997 100.715 40.0462C101.039 39.8928 101.415 39.8161 101.844 39.8161C102.643 39.8161 103.264 40.0505 103.705 40.5194C104.151 40.984 104.374 41.6361 104.374 42.4758V47.1879H101.895ZM107.175 46.3567C107.836 46.9961 108.761 47.3158 109.951 47.3158C110.523 47.3158 111.015 47.2774 111.427 47.2007C111.839 47.124 112.238 46.9854 112.625 46.7851V44.9885C112.201 45.1888 111.805 45.3316 111.439 45.4169C111.078 45.4978 110.68 45.5383 110.247 45.5383C109.772 45.5383 109.396 45.4233 109.118 45.1931C108.845 44.9629 108.7 44.6454 108.683 44.2404H113.092V43.1279C113.092 42.0581 112.798 41.2397 112.209 40.6728C111.624 40.1016 110.794 39.8161 109.717 39.8161C108.586 39.8161 107.716 40.1443 107.106 40.8007C106.496 41.4528 106.191 42.3905 106.191 43.6139C106.191 44.7988 106.519 45.7131 107.175 46.3567ZM109.074 41.7981C109.272 41.6105 109.516 41.5168 109.806 41.5168C110.121 41.5168 110.371 41.6212 110.556 41.83C110.746 42.0389 110.844 42.3181 110.853 42.6676H108.733C108.767 42.2712 108.881 41.9814 109.074 41.7981ZM119.249 39.8161C119.464 39.8161 119.668 39.8331 119.861 39.8672L120 39.8928L119.779 42.252C119.577 42.2009 119.298 42.1753 118.94 42.1753C118.402 42.1753 118.011 42.301 117.767 42.5525C117.523 42.7997 117.401 43.1578 117.401 43.6266V47.1879H114.935V39.9439H116.77L117.155 41.1012H117.275C117.481 40.7176 117.767 40.4085 118.133 40.1741C118.503 39.9354 118.875 39.8161 119.249 39.8161ZM109.64 56.9078H107.468V57.2999H109.221V59.3995C108.842 59.5547 108.381 59.6323 107.838 59.6323C107 59.6323 106.365 59.4063 105.932 58.9543C105.5 58.4995 105.283 57.8228 105.283 56.9241C105.283 56.099 105.51 55.4441 105.964 54.9593C106.421 54.4719 107.038 54.2281 107.814 54.2281C108.362 54.2281 108.892 54.348 109.402 54.5876L109.567 54.2118C109.057 53.9722 108.48 53.8523 107.838 53.8523C107.245 53.8523 106.718 53.9803 106.259 54.2363C105.802 54.4923 105.45 54.8558 105.203 55.327C104.958 55.7954 104.836 56.3332 104.836 56.9405C104.836 57.9154 105.083 58.6697 105.577 59.2034C106.074 59.7345 106.788 60 107.717 60C108.429 60 109.07 59.8774 109.64 59.6323V56.9078ZM41.6536 57.8105H39.2597L38.4376 59.9183H37.9822L40.3519 53.9218H40.6138L42.9351 59.9183H42.4717L41.6536 57.8105ZM39.4088 57.4347H41.5165L40.7146 55.282C40.6474 55.1132 40.5668 54.879 40.4728 54.5794C40.4002 54.8409 40.321 55.0778 40.235 55.2902L39.4088 57.4347ZM12.5779 59.9183H12.993V54.3384H14.9072V53.9463H10.6636V54.3384H12.5779V59.9183ZM25.2579 59.9183V57.3163H26.7208L28.2401 59.9183H28.7318L27.1318 57.1978C27.5563 57.078 27.872 56.8806 28.0789 56.6055C28.2885 56.3305 28.3932 55.9928 28.3932 55.5925C28.3932 55.0424 28.2186 54.6312 27.8693 54.3589C27.5201 54.0838 26.98 53.9463 26.2492 53.9463H24.8468V59.9183H25.2579ZM26.3822 56.9568H25.2579V54.3221H26.2331C26.8403 54.3221 27.2783 54.4256 27.5469 54.6325C27.8156 54.8395 27.9499 55.1704 27.9499 55.6252C27.9499 56.0636 27.8129 56.3958 27.5389 56.6218C27.2648 56.8451 26.8793 56.9568 26.3822 56.9568ZM52.8344 53.9463V59.9183H53.2454V53.9463H52.8344ZM68.2589 59.9183H67.8438L64.3537 54.6162H64.3215C64.3537 55.248 64.3698 55.7245 64.3698 56.0459V59.9183H63.9749V53.9463H64.386L67.872 59.2402H67.8961C67.872 58.75 67.8599 58.2844 67.8599 57.8432V53.9463H68.2589V59.9183ZM78.9923 53.9463V59.9183H79.4034V53.9463H78.9923ZM94.4168 59.9183H94.0017L90.5117 54.6162H90.4794C90.5117 55.248 90.5278 55.7245 90.5278 56.0459V59.9183H90.1328V53.9463H90.5439L94.0299 59.2402H94.0541C94.0299 58.75 94.0178 58.2844 94.0178 57.8432V53.9463H94.4168V59.9183Z" fill="white"/>
</svg>
