<svg width="37" height="26" viewBox="0 0 37 26" fill="none" xmlns="http://www.w3.org/2000/svg">
<rect x="0.715279" y="0.840524" width="35.0197" height="24.1247" rx="4.28018" fill="white"/>
<path fill-rule="evenodd" clip-rule="evenodd" d="M22.7155 19.5746C26.6012 19.5746 29.7512 16.4621 29.7512 12.6226C29.7512 8.78307 26.6012 5.67053 22.7155 5.67053C20.9739 5.67053 19.3801 6.29579 18.1514 7.33153C16.9228 6.29587 15.3291 5.67065 13.5875 5.67065C9.70178 5.67065 6.55176 8.7832 6.55176 12.6227C6.55176 16.4622 9.70178 19.5748 13.5875 19.5748C15.3291 19.5748 16.9229 18.9495 18.1516 17.9138C19.3802 18.9494 20.9739 19.5746 22.7155 19.5746Z" fill="#ED0006"/>
<path fill-rule="evenodd" clip-rule="evenodd" d="M22.7153 19.5745C26.6011 19.5745 29.7511 16.462 29.7511 12.6225C29.7511 8.78295 26.6011 5.67041 22.7153 5.67041C20.9738 5.67041 19.38 6.29564 18.1514 7.33132C19.6641 8.60646 20.6232 10.5038 20.6232 12.6225C20.6232 14.7412 19.6641 16.6385 18.1514 17.9136C19.38 18.9493 20.9738 19.5745 22.7153 19.5745Z" fill="#F9A000"/>
<path fill-rule="evenodd" clip-rule="evenodd" d="M18.1515 17.9136C19.6642 16.6385 20.6233 14.7412 20.6233 12.6225C20.6233 10.5038 19.6642 8.60649 18.1515 7.33136C16.6388 8.60649 15.6797 10.5038 15.6797 12.6225C15.6797 14.7412 16.6388 16.6385 18.1515 17.9136Z" fill="#FF5E00"/>
<rect x="0.715279" y="0.840524" width="35.0197" height="24.1247" rx="4.28018" stroke="#F2F4F7" stroke-width="0.778215"/>
</svg>
