<svg width="34" height="29" viewBox="0 0 34 29" fill="none" xmlns="http://www.w3.org/2000/svg">
<path d="M24.0833 25.6425H7.08333C5.95616 25.6425 4.87516 25.1947 4.07813 24.3977C3.2811 23.6006 2.83333 22.5196 2.83333 21.3925V10.0591C2.83333 9.6834 2.68408 9.32307 2.4184 9.05739C2.15272 8.79171 1.79239 8.64246 1.41667 8.64246C1.04094 8.64246 0.680609 8.79171 0.414932 9.05739C0.149256 9.32307 0 9.6834 0 10.0591L0 21.3925C0 23.2711 0.746278 25.0727 2.07466 26.4011C3.40304 27.7295 5.20472 28.4758 7.08333 28.4758H24.0833C24.4591 28.4758 24.8194 28.3265 25.0851 28.0609C25.3507 27.7952 25.5 27.4348 25.5 27.0591C25.5 26.6834 25.3507 26.3231 25.0851 26.0574C24.8194 25.7917 24.4591 25.6425 24.0833 25.6425ZM29.75 0.142456H9.91667C8.7895 0.142456 7.70849 0.590223 6.91146 1.38725C6.11443 2.18428 5.66667 3.26529 5.66667 4.39246V18.5591C5.66667 19.6863 6.11443 20.7673 6.91146 21.5643C7.70849 22.3614 8.7895 22.8091 9.91667 22.8091H29.75C30.8772 22.8091 31.9582 22.3614 32.7552 21.5643C33.5522 20.7673 34 19.6863 34 18.5591V4.39246C34 3.26529 33.5522 2.18428 32.7552 1.38725C31.9582 0.590223 30.8772 0.142456 29.75 0.142456ZM29.1692 2.97579L20.8392 11.3058C20.7075 11.4386 20.5508 11.544 20.3781 11.6159C20.2055 11.6878 20.0203 11.7248 19.8333 11.7248C19.6463 11.7248 19.4611 11.6878 19.2885 11.6159C19.1159 11.544 18.9592 11.4386 18.8275 11.3058L10.4975 2.97579H29.1692ZM31.1667 18.5591C31.1667 18.9348 31.0174 19.2952 30.7517 19.5609C30.4861 19.8265 30.1257 19.9758 29.75 19.9758H9.91667C9.54094 19.9758 9.18061 19.8265 8.91493 19.5609C8.64926 19.2952 8.5 18.9348 8.5 18.5591V4.91662L16.83 13.2466C17.6269 14.0425 18.7071 14.4896 19.8333 14.4896C20.9596 14.4896 22.0398 14.0425 22.8367 13.2466L31.1667 4.91662V18.5591Z" fill="#002442"/>
</svg>
