<svg width="16" height="16" viewBox="0 0 16 16" fill="none" xmlns="http://www.w3.org/2000/svg">
<rect width="16" height="16" rx="2" fill="white"/>
<path fill-rule="evenodd" clip-rule="evenodd" d="M4.7076 3.9671C4.80182 3.87302 4.91495 3.80004 5.0395 3.75299C5.16405 3.70595 5.29718 3.68591 5.43006 3.69421C5.56294 3.70251 5.69254 3.73896 5.81027 3.80113C5.928 3.86331 6.03117 3.9498 6.11295 4.05488L7.07945 5.29663C7.2566 5.5244 7.31906 5.82111 7.24906 6.10112L6.76692 7.19896C6.75169 7.26004 6.75251 7.32402 6.76931 7.38469C6.7861 7.44536 6.81829 7.50065 6.86276 7.54521L8.61546 9.23084C8.66006 9.27541 8.71545 9.30766 8.77621 9.32445C8.83698 9.34125 8.90106 9.34202 8.96222 9.3267L9.89875 8.75101C10.0369 8.71646 10.1811 8.71378 10.3205 8.74317C10.4599 8.77255 10.5907 8.83324 10.7032 8.92064L11.9448 9.88668C12.3912 10.234 12.4321 10.8937 12.0326 11.2927L11.4759 11.8495C11.0774 12.2479 10.4819 12.423 9.92675 12.2275C8.50589 11.7275 7.21583 10.914 6.15225 9.84737C5.08575 8.78387 4.27233 7.4939 3.77233 6.07312C3.57741 5.51848 3.7524 4.92238 4.15085 4.5239L4.7076 3.9671Z" fill="#002442"/>
</svg>
