<svg width="41" height="41" viewBox="0 0 41 41" fill="none" xmlns="http://www.w3.org/2000/svg">
<path d="M14 21L18.1053 26L27 18" stroke="#002442" stroke-width="3" stroke-linecap="round" stroke-linejoin="round"/>
<path d="M28.125 7.2H26.5C26.5 6.35131 26.1576 5.53737 25.5481 4.93726C24.9386 4.33714 24.112 4 23.25 4H16.75C15.888 4 15.0614 4.33714 14.4519 4.93726C13.8424 5.53737 13.5 6.35131 13.5 7.2H11.875C10.5821 7.2 9.34209 7.70571 8.42785 8.60589C7.51361 9.50606 7 10.727 7 12V31.2C7 32.473 7.51361 33.6939 8.42785 34.5941C9.34209 35.4943 10.5821 36 11.875 36H28.125C29.4179 36 30.6579 35.4943 31.5721 34.5941C32.4864 33.6939 33 32.473 33 31.2V12C33 10.727 32.4864 9.50606 31.5721 8.60589C30.6579 7.70571 29.4179 7.2 28.125 7.2V7.2ZM16.75 7.2H23.25V8.8V10.4H16.75V7.2ZM29.75 31.2C29.75 31.6243 29.5788 32.0313 29.274 32.3314C28.9693 32.6314 28.556 32.8 28.125 32.8H11.875C11.444 32.8 11.0307 32.6314 10.726 32.3314C10.4212 32.0313 10.25 31.6243 10.25 31.2V12C10.25 11.5757 10.4212 11.1687 10.726 10.8686C11.0307 10.5686 11.444 10.4 11.875 10.4H13.5C13.5 11.2487 13.8424 12.0626 14.4519 12.6627C15.0614 13.2629 15.888 13.6 16.75 13.6H23.25C24.112 13.6 24.9386 13.2629 25.5481 12.6627C26.1576 12.0626 26.5 11.2487 26.5 10.4H28.125C28.556 10.4 28.9693 10.5686 29.274 10.8686C29.5788 11.1687 29.75 11.5757 29.75 12V31.2Z" fill="#002442"/>
</svg>
