<svg width="30" height="32" viewBox="0 0 30 32" fill="none" xmlns="http://www.w3.org/2000/svg">
<path d="M29.7622 24.6406L25.2497 16.9528C26.1731 15.2797 26.6542 13.404 26.6484 11.499C26.6484 8.44925 25.4204 5.52444 23.2345 3.36797C21.0487 1.21149 18.084 0 14.9926 0C11.9013 0 8.93664 1.21149 6.75076 3.36797C4.56487 5.52444 3.33685 8.44925 3.33685 11.499C3.33112 13.404 3.81217 15.2797 4.73555 16.9528L0.223091 24.6406C0.0766627 24.8908 -0.000288506 25.1747 8.12826e-07 25.4636C0.000290132 25.7525 0.0778094 26.0363 0.224738 26.2862C0.371667 26.5361 0.582809 26.7434 0.836861 26.8871C1.09091 27.0308 1.37889 27.1058 1.67174 27.1047H6.45062L8.88168 31.1458C8.96363 31.2797 9.06456 31.4014 9.1814 31.5072C9.49008 31.8007 9.90161 31.9654 10.3303 31.9671H10.5634C10.8148 31.9332 11.055 31.843 11.2657 31.7035C11.4764 31.564 11.6519 31.3789 11.779 31.1622L14.9926 25.7084L18.2063 31.2115C18.3352 31.4251 18.5116 31.607 18.7222 31.7436C18.9327 31.8802 19.172 31.9678 19.4219 32H19.655C20.0894 32.0025 20.5077 31.8375 20.8205 31.54C20.9325 31.4403 21.028 31.3239 21.1036 31.195L23.5347 27.154H28.3136C28.607 27.1551 28.8955 27.0798 29.1499 26.9355C29.4043 26.7913 29.6155 26.5833 29.7622 26.3326C29.9178 26.0771 30 25.7847 30 25.4866C30 25.1886 29.9178 24.8961 29.7622 24.6406V24.6406ZM10.3137 27.154L8.83173 24.7063C8.6858 24.4635 8.4789 24.2619 8.23099 24.1209C7.98308 23.9799 7.70252 23.9043 7.41638 23.9014H4.53573L6.91685 19.8275C8.55653 21.3862 10.6231 22.437 12.8613 22.8501L10.3137 27.154ZM14.9926 19.7125C13.346 19.7125 11.7363 19.2308 10.3672 18.3283C8.99808 17.4258 7.93097 16.143 7.30083 14.6422C6.67068 13.1413 6.50581 11.4899 6.82705 9.89658C7.1483 8.30331 7.94123 6.83979 9.10558 5.69111C10.2699 4.54242 11.7534 3.76016 13.3684 3.44324C14.9834 3.12632 16.6574 3.28897 18.1787 3.91064C19.7 4.5323 21.0003 5.58505 21.9151 6.93576C22.8299 8.28647 23.3182 9.87448 23.3182 11.499C23.3182 13.6773 22.4411 15.7665 20.8797 17.3068C19.3184 18.8472 17.2007 19.7125 14.9926 19.7125V19.7125ZM22.5689 23.9014C22.2828 23.9043 22.0022 23.9799 21.7543 24.1209C21.5064 24.2619 21.2995 24.4635 21.1536 24.7063L19.6716 27.154L17.1406 22.8008C19.371 22.3793 21.4299 21.3295 23.0685 19.7782L25.4496 23.8521L22.5689 23.9014Z" fill="#002442"/>
</svg>
