<svg width="36" height="26" viewBox="0 0 36 26" fill="none" xmlns="http://www.w3.org/2000/svg">
<rect x="0.578561" y="0.840524" width="35.0197" height="24.1247" rx="2.72375" fill="white"/>
<path fill-rule="evenodd" clip-rule="evenodd" d="M19.1447 8.89962L17.3526 9.29554V7.79984L19.1447 7.41125V8.89962ZM30.9328 13.0861C30.9328 11.2091 30.0475 9.72806 28.3554 9.72806C26.6561 9.72806 25.628 11.2091 25.628 13.0714C25.628 15.2783 26.8417 16.3927 28.5838 16.3927C29.4335 16.3927 30.0761 16.1948 30.5616 15.9162V14.4498C30.0761 14.6991 29.5192 14.853 28.8123 14.853C28.1198 14.853 27.5057 14.6037 27.4272 13.7386H30.9186C30.9186 13.6984 30.9211 13.6073 30.924 13.5023L30.9241 13.5009L30.9241 13.5006C30.9281 13.3569 30.9328 13.1874 30.9328 13.0861ZM27.4053 12.3894C27.4053 11.5609 27.8979 11.2163 28.3478 11.2163C28.7833 11.2163 29.2474 11.5609 29.2474 12.3894H27.4053ZM22.8716 9.72809C22.1719 9.72809 21.7221 10.0654 21.4722 10.3L21.3794 9.8454H19.8086V18.3944L21.5936 18.0058L21.6007 15.9309C21.8578 16.1215 22.2362 16.3928 22.8645 16.3928C24.1425 16.3928 25.3063 15.337 25.3063 13.0128C25.2992 10.8865 24.1211 9.72809 22.8716 9.72809ZM22.4432 14.7793C22.0219 14.7793 21.7721 14.6254 21.6007 14.4347L21.5936 11.7146C21.7792 11.502 22.0362 11.3554 22.4432 11.3554C23.0929 11.3554 23.5427 12.1032 23.5427 13.0637C23.5427 14.0462 23.1001 14.7793 22.4432 14.7793ZM17.3526 9.85272H19.1447V16.2681H17.3526V9.85272ZM15.3186 9.85289L15.4328 10.3954C15.8541 9.6036 16.6894 9.7649 16.9179 9.85289V11.5392C16.6966 11.4586 15.9826 11.3559 15.5614 11.9205V16.2683H13.7764V9.85289H15.3186ZM11.8624 8.26169L10.1202 8.64294L10.1131 14.5158C10.1131 15.6009 10.9056 16.4001 11.9623 16.4001C12.5478 16.4001 12.9762 16.2901 13.2118 16.1581V14.6697C12.9833 14.765 11.8552 15.1023 11.8552 14.0172V11.4144H13.2118V9.8527H11.8552L11.8624 8.26169ZM7.64276 11.3191C7.26435 11.3191 7.03587 11.4291 7.03587 11.715C7.03587 12.0272 7.42908 12.1645 7.9169 12.3349C8.71217 12.6127 9.75887 12.9783 9.7633 14.3325C9.7633 15.6449 8.7423 16.4001 7.25721 16.4001C6.64318 16.4001 5.97204 16.2754 5.30803 15.9821V14.2372C5.90778 14.5744 6.6646 14.8237 7.25721 14.8237C7.65704 14.8237 7.94264 14.7137 7.94264 14.3765C7.94264 14.0306 7.51639 13.8726 7.00179 13.6817C6.2181 13.3911 5.22949 13.0245 5.22949 11.803C5.22949 10.5052 6.19337 9.72806 7.64276 9.72806C8.23537 9.72806 8.82084 9.82337 9.41344 10.0653V11.7883C8.87082 11.4877 8.18539 11.3191 7.64276 11.3191Z" fill="#6461FC"/>
<rect x="0.578561" y="0.840524" width="35.0197" height="24.1247" rx="2.72375" stroke="#F2F4F7" stroke-width="0.778215"/>
</svg>
