<svg width="36" height="26" viewBox="0 0 36 26" fill="none" xmlns="http://www.w3.org/2000/svg">
<rect x="0.441842" y="0.840524" width="35.0197" height="24.1247" rx="4.28018" fill="white"/>
<path fill-rule="evenodd" clip-rule="evenodd" d="M11.2073 16.9063H9.07008L7.46741 10.6122C7.39135 10.3227 7.22983 10.0667 6.99224 9.9461C6.39932 9.64293 5.74596 9.40166 5.0332 9.27997V9.03765H8.47611C8.95128 9.03765 9.30766 9.40166 9.36706 9.82441L10.1986 14.3645L12.3348 9.03765H14.4126L11.2073 16.9063ZM15.6006 16.9063H13.5821L15.2442 9.03765H17.2626L15.6006 16.9063ZM19.874 11.2173C19.9334 10.7935 20.2898 10.5512 20.7055 10.5512C21.3589 10.4904 22.0706 10.6121 22.6646 10.9142L23.021 9.22003C22.427 8.9777 21.7736 8.85602 21.1807 8.85602C19.2217 8.85602 17.7962 9.94594 17.7962 11.4586C17.7962 12.6094 18.8059 13.2136 19.5187 13.5776C20.2898 13.9406 20.5868 14.1829 20.5274 14.5459C20.5274 15.0903 19.9334 15.3326 19.3405 15.3326C18.6277 15.3326 17.915 15.1511 17.2626 14.848L16.9063 16.5432C17.619 16.8453 18.3901 16.967 19.1029 16.967C21.2995 17.0268 22.6646 15.9379 22.6646 14.3035C22.6646 12.2454 19.874 12.1247 19.874 11.2173ZM29.7289 16.9063L28.1262 9.03763H26.4048C26.0484 9.03763 25.692 9.27995 25.5732 9.64291L22.6055 16.9063H24.6833L25.098 15.7566H27.651L27.8886 16.9063H29.7289ZM26.701 11.1565L27.2939 14.122H25.6318L26.701 11.1565Z" fill="#172B85"/>
<rect x="0.441842" y="0.840524" width="35.0197" height="24.1247" rx="4.28018" stroke="#F2F4F7" stroke-width="0.778215"/>
</svg>
