<svg width="30" height="30" viewBox="0 0 30 30" fill="none" xmlns="http://www.w3.org/2000/svg">
<path d="M5.0835 23.5H11.0902C11.2766 23.501 11.4614 23.4653 11.634 23.3948C11.8066 23.3243 11.9636 23.2204 12.096 23.0891L21.8993 13.2716L25.9227 9.33329C26.0554 9.20159 26.1608 9.0449 26.2328 8.87227C26.3047 8.69964 26.3417 8.51447 26.3417 8.32745C26.3417 8.14044 26.3047 7.95527 26.2328 7.78264C26.1608 7.61 26.0554 7.45332 25.9227 7.32162L19.916 1.24412C19.7843 1.11134 19.6276 1.00595 19.455 0.934025C19.2823 0.862102 19.0972 0.825073 18.9102 0.825073C18.7231 0.825073 18.538 0.862102 18.3653 0.934025C18.1927 1.00595 18.036 1.11134 17.9043 1.24412L13.9093 5.25329L4.07766 15.0708C3.94636 15.2032 3.84249 15.3602 3.77199 15.5328C3.70149 15.7054 3.66575 15.8902 3.66683 16.0766V22.0833C3.66683 22.459 3.81609 22.8193 4.08176 23.085C4.34744 23.3507 4.70777 23.5 5.0835 23.5ZM18.9102 4.24745L22.9193 8.25662L20.9077 10.2683L16.8985 6.25912L18.9102 4.24745ZM6.50016 16.6575L14.901 8.25662L18.9102 12.2658L10.5093 20.6666H6.50016V16.6575ZM27.7502 26.3333H2.25016C1.87444 26.3333 1.5141 26.4825 1.24843 26.7482C0.982752 27.0139 0.833496 27.3742 0.833496 27.75C0.833496 28.1257 0.982752 28.486 1.24843 28.7517C1.5141 29.0174 1.87444 29.1666 2.25016 29.1666H27.7502C28.1259 29.1666 28.4862 29.0174 28.7519 28.7517C29.0176 28.486 29.1668 28.1257 29.1668 27.75C29.1668 27.3742 29.0176 27.0139 28.7519 26.7482C28.4862 26.4825 28.1259 26.3333 27.7502 26.3333Z" fill="#002442"/>
</svg>
