<svg width="60" height="41" viewBox="0 0 60 41" fill="none" xmlns="http://www.w3.org/2000/svg">
<path d="M58.7461 6.39847C58.0561 3.8798 56.023 1.89644 53.4412 1.22332C48.7626 0 30 0 30 0C30 0 11.2374 0 6.55841 1.22332C3.9767 1.89644 1.94352 3.8798 1.25352 6.39847C0 10.9633 0 20.4878 0 20.4878C0 20.4878 0 30.012 1.25352 34.5771C1.94352 37.0958 3.9767 39.0792 6.55841 39.7526C11.2374 40.9756 30 40.9756 30 40.9756C30 40.9756 48.7626 40.9756 53.4412 39.7526C56.023 39.0792 58.0561 37.0958 58.7461 34.5771C60 30.012 60 20.4878 60 20.4878C60 20.4878 60 10.9633 58.7461 6.39847Z" fill="#FF0000"/>
<path d="M23.4146 29.2419V11.6809L38.0487 20.4617L23.4146 29.2419Z" fill="white"/>
</svg>
