<svg width="510" height="508" viewBox="0 0 510 508" fill="none" xmlns="http://www.w3.org/2000/svg">
<g filter="url(#filter0_d_42_86)">
<circle cx="290.036" cy="176.286" r="136.205" transform="rotate(-21.2328 290.036 176.286)" fill="#002442"/>
</g>
<path d="M130.377 202.567L104.327 195.959L103.994 189.763L117.307 186.329C117.561 186.259 117.949 186.167 118.47 186.051C118.991 185.936 119.559 185.815 120.173 185.688C120.799 185.561 121.384 185.446 121.929 185.342C122.487 185.25 122.929 185.187 123.255 185.153C122.925 185.117 122.482 185.046 121.925 184.939C121.369 184.843 120.777 184.73 120.149 184.6C119.522 184.481 118.936 184.362 118.39 184.243C117.845 184.125 117.43 184.03 117.145 183.959L103.494 180.46L103.162 174.282L128.509 167.812L128.797 173.166L114.946 176.406C114.529 176.498 114.031 176.602 113.451 176.717C112.872 176.844 112.264 176.965 111.625 177.08C111 177.207 110.39 177.316 109.798 177.408C109.217 177.512 108.712 177.586 108.281 177.632C108.729 177.691 109.249 177.769 109.84 177.864C110.442 177.96 111.051 178.061 111.666 178.168C112.294 178.287 112.874 178.406 113.408 178.525C113.942 178.643 114.375 178.75 114.708 178.844L129.305 182.627L129.582 187.77L115.386 191.465C115.074 191.546 114.652 191.638 114.118 191.742C113.597 191.857 113.029 191.973 112.415 192.088C111.8 192.203 111.196 192.306 110.603 192.398C110.023 192.502 109.518 192.576 109.086 192.622C109.677 192.705 110.392 192.819 111.231 192.962C112.083 193.116 112.93 193.277 113.77 193.443C114.612 193.621 115.317 193.775 115.887 193.906L130.09 197.213L130.377 202.567Z" fill="white"/>
<path d="M134.17 206.713L128.678 207.652C127.719 207.816 126.798 207.938 125.915 208.018C125.035 208.109 124.412 208.168 124.045 208.195L124.112 208.468C124.881 208.764 125.542 209.155 126.094 209.642C126.648 210.14 127.107 210.714 127.47 211.363C127.833 212.013 128.11 212.73 128.301 213.516C128.637 214.894 128.681 216.137 128.434 217.247C128.198 218.355 127.624 219.283 126.712 220.032C125.811 220.779 124.529 221.295 122.865 221.579L110.234 223.739L108.965 218.53L120.28 216.595C121.666 216.358 122.65 215.929 123.233 215.308C123.815 214.686 123.979 213.852 123.724 212.804C123.469 211.757 123.019 210.974 122.376 210.455C121.744 209.935 120.918 209.631 119.898 209.545C118.89 209.456 117.698 209.529 116.324 209.764L107.21 211.323L105.941 206.114L132.901 201.504L134.17 206.713Z" fill="white"/>
<path d="M128.775 245.093C127.215 245.601 125.749 245.845 124.377 245.825C123.009 245.815 121.748 245.556 120.593 245.048C119.453 244.546 118.447 243.817 117.576 242.859C116.708 241.913 115.995 240.756 115.436 239.389C114.912 238.11 114.642 236.864 114.626 235.652C114.615 234.452 114.859 233.321 115.36 232.261C115.876 231.208 116.647 230.268 117.673 229.442C118.703 228.627 119.998 227.966 121.558 227.458C123.631 226.783 125.532 226.569 127.262 226.817C128.993 227.064 130.502 227.728 131.79 228.808C133.078 229.888 134.097 231.345 134.847 233.177C135.544 234.88 135.788 236.509 135.578 238.065C135.373 239.631 134.705 241.023 133.574 242.239C132.447 243.467 130.848 244.418 128.775 245.093ZM123.629 232.517C122.403 232.916 121.426 233.382 120.696 233.915C119.967 234.447 119.504 235.059 119.307 235.75C119.11 236.441 119.193 237.231 119.557 238.121C119.917 238.999 120.419 239.641 121.065 240.045C121.714 240.46 122.508 240.657 123.446 240.634C124.388 240.622 125.472 240.416 126.698 240.017C127.935 239.614 128.907 239.15 129.613 238.625C130.336 238.107 130.79 237.504 130.976 236.817C131.162 236.129 131.073 235.341 130.709 234.452C130.172 233.139 129.319 232.335 128.15 232.04C126.985 231.756 125.478 231.915 123.629 232.517Z" fill="white"/>
<path d="M149.797 262.081L132.658 271.695L129.718 267.212L146.858 257.597L149.797 262.081ZM155.047 256.08C155.484 256.746 155.697 257.411 155.684 258.075C155.682 258.733 155.242 259.308 154.363 259.801C153.494 260.288 152.734 260.387 152.082 260.096C151.44 259.799 150.9 259.317 150.463 258.651C150.02 257.975 149.805 257.305 149.817 256.641C149.846 255.981 150.294 255.408 151.163 254.921C152.042 254.428 152.794 254.327 153.419 254.62C154.061 254.917 154.604 255.403 155.047 256.08Z" fill="white"/>
<path d="M152.029 287.83C150.94 288.604 149.82 289.014 148.667 289.058C147.531 289.105 146.377 288.785 145.204 288.098C144.04 287.405 142.876 286.338 141.71 284.899C140.848 283.834 140.178 282.867 139.702 282C139.233 281.143 138.852 280.208 138.56 279.196L142.17 276.629C142.449 277.736 142.844 278.855 143.353 279.985C143.879 281.118 144.433 282.045 145.016 282.764C145.672 283.575 146.264 284.065 146.793 284.234C147.338 284.406 147.816 284.346 148.227 284.054C148.494 283.864 148.674 283.621 148.766 283.326C148.875 283.033 148.875 282.559 148.767 281.905C148.668 281.243 148.436 280.26 148.071 278.955C147.717 277.7 147.504 276.61 147.433 275.685C147.368 274.769 147.506 273.954 147.845 273.239C148.201 272.526 148.833 271.847 149.74 271.202C151.22 270.149 152.775 269.905 154.405 270.468C156.052 271.033 157.62 272.236 159.11 274.076C159.877 275.023 160.506 275.996 160.999 276.995C161.499 278.002 161.898 279.118 162.196 280.341L158.027 281.325C157.759 280.325 157.462 279.41 157.136 278.58C156.817 277.759 156.377 277.002 155.817 276.31C155.323 275.7 154.864 275.301 154.442 275.113C154.019 274.926 153.631 274.958 153.278 275.209C153.02 275.392 152.853 275.633 152.778 275.93C152.71 276.237 152.737 276.706 152.857 277.338C152.995 277.972 153.234 278.872 153.574 280.036C153.902 281.166 154.119 282.196 154.225 283.125C154.34 284.048 154.237 284.897 153.915 285.67C153.603 286.438 152.975 287.157 152.029 287.83Z" fill="white"/>
<path d="M173.842 290.957L178.349 294.72L173.763 305.282C173.616 305.617 173.453 305.945 173.271 306.267C173.09 306.588 172.892 306.911 172.677 307.235C172.462 307.559 172.226 307.888 171.969 308.223L172.05 308.29C172.53 307.867 173 307.489 173.46 307.156C173.929 306.831 174.417 306.529 174.923 306.25L185.15 300.397L189.563 304.081L168.278 315.162C166.977 315.845 165.713 316.262 164.485 316.411C163.25 316.57 162.074 316.48 160.957 316.143C159.849 315.813 158.814 315.246 157.851 314.442C157.383 314.052 157.002 313.688 156.708 313.351C156.405 313.022 156.156 312.73 155.961 312.475L158.82 309.326C158.97 309.527 159.173 309.765 159.429 310.04C159.686 310.315 159.971 310.584 160.286 310.847C160.862 311.328 161.463 311.624 162.09 311.735C162.716 311.846 163.35 311.819 163.991 311.652C164.625 311.495 165.235 311.249 165.823 310.916L166.715 310.403L173.842 290.957Z" fill="white"/>
<path d="M202.804 324.235C201.894 325.6 200.901 326.69 199.823 327.505C198.754 328.326 197.62 328.877 196.42 329.157C195.236 329.434 194.021 329.441 192.774 329.178C191.537 328.922 190.295 328.399 189.047 327.609C187.879 326.869 186.928 326.004 186.195 325.013C185.471 324.028 184.989 322.945 184.747 321.766C184.521 320.583 184.561 319.34 184.867 318.036C185.183 316.738 185.795 315.407 186.705 314.042C187.914 312.228 189.264 310.899 190.756 310.054C192.247 309.21 193.815 308.843 195.458 308.955C197.101 309.066 198.76 309.652 200.433 310.711C201.987 311.695 203.146 312.893 203.909 314.305C204.681 315.724 204.99 317.278 204.835 318.969C204.69 320.665 204.013 322.421 202.804 324.235ZM191.324 316.966C190.609 318.039 190.127 319.016 189.877 319.898C189.627 320.78 189.632 321.566 189.89 322.256C190.148 322.946 190.683 323.549 191.495 324.063C192.297 324.57 193.069 324.796 193.81 324.739C194.562 324.688 195.296 324.369 196.011 323.781C196.736 323.2 197.456 322.374 198.171 321.301C198.892 320.218 199.371 319.246 199.608 318.384C199.861 317.518 199.855 316.745 199.59 316.064C199.326 315.383 198.788 314.786 197.976 314.272C196.778 313.514 195.637 313.367 194.553 313.831C193.479 314.302 192.403 315.347 191.324 316.966Z" fill="white"/>
<path d="M229.965 326.308L221.794 344.181L218.05 342.478L218.439 339.894L218.183 339.777C217.521 340.21 216.815 340.488 216.063 340.609C215.312 340.731 214.548 340.725 213.772 340.59C212.996 340.456 212.234 340.219 211.488 339.88C210.208 339.298 209.195 338.567 208.45 337.687C207.711 336.797 207.293 335.751 207.198 334.549C207.114 333.352 207.423 331.987 208.125 330.452L213.452 318.797L218.333 321.017L213.56 331.457C212.976 332.736 212.764 333.804 212.925 334.663C213.087 335.522 213.669 336.179 214.672 336.635C215.664 337.087 216.545 337.217 217.315 337.026C218.09 336.825 218.789 336.339 219.412 335.567C220.051 334.789 220.661 333.766 221.241 332.497L225.085 324.088L229.965 326.308Z" fill="white"/>
<path d="M247.124 331.409C247.381 331.49 247.672 331.6 247.998 331.739C248.338 331.87 248.607 331.991 248.807 332.103L247 336.804C246.849 336.696 246.62 336.581 246.314 336.46C246.022 336.332 245.764 336.233 245.541 336.162C244.881 335.956 244.213 335.838 243.537 335.81C242.873 335.786 242.238 335.888 241.633 336.116C241.032 336.333 240.495 336.705 240.022 337.232C239.564 337.751 239.204 338.455 238.942 339.343L236.116 348.937L231.001 347.333L236.553 328.481L240.428 329.696L240.249 333.103L240.5 333.182C241.058 332.657 241.689 332.216 242.392 331.86C243.11 331.495 243.868 331.266 244.665 331.173C245.477 331.071 246.296 331.15 247.124 331.409Z" fill="white"/>
<path d="M277.172 356.766L271.704 336.105L271.546 336.092C271.553 336.574 271.563 337.303 271.576 338.279C271.601 339.244 271.618 340.273 271.627 341.366C271.636 342.459 271.625 343.445 271.595 344.323L271.181 356.269L266.329 355.867L267.218 330.183L274.611 330.796L279.992 350.939L280.097 350.948L287.206 331.84L294.599 332.453L293.709 358.137L288.647 357.717L289.068 345.56C289.096 344.752 289.14 343.822 289.2 342.77C289.271 341.719 289.347 340.721 289.426 339.776C289.506 338.82 289.566 338.102 289.606 337.624L289.449 337.611L282.148 357.178L277.172 356.766Z" fill="white"/>
<path d="M307.825 336.638C309.635 336.491 311.245 336.714 312.655 337.304C314.063 337.883 315.218 338.798 316.121 340.051C317.025 341.304 317.614 342.876 317.889 344.766L318.263 347.34L305.631 348.36C305.907 349.851 306.528 350.992 307.494 351.782C308.469 352.56 309.711 352.888 311.218 352.766C312.467 352.665 313.594 352.445 314.596 352.107C315.599 351.768 316.612 351.299 317.635 350.7L318.233 354.805C317.332 355.359 316.367 355.789 315.336 356.095C314.317 356.4 313.054 356.613 311.547 356.735C309.585 356.893 307.792 356.674 306.169 356.077C304.557 355.48 303.212 354.48 302.133 353.077C301.066 351.673 300.37 349.852 300.044 347.613C299.714 345.341 299.824 343.419 300.376 341.849C300.937 340.267 301.858 339.043 303.138 338.177C304.417 337.3 305.979 336.786 307.825 336.638ZM308.409 340.409C307.37 340.493 306.553 340.894 305.96 341.61C305.379 342.326 305.139 343.395 305.239 344.818L312.738 344.214C312.612 343.426 312.364 342.736 311.994 342.144C311.636 341.551 311.156 341.097 310.555 340.782C309.965 340.466 309.25 340.342 308.409 340.409Z" fill="white"/>
<path d="M332.926 332.329C334.972 331.868 336.785 332.047 338.363 332.865C339.938 333.673 341.09 335.282 341.818 337.694L345.524 349.961L340.294 351.14L336.974 340.151C336.568 338.805 336.009 337.847 335.3 337.276C334.601 336.702 333.721 336.535 332.657 336.775C331.057 337.136 330.126 337.914 329.865 339.112C329.604 340.309 329.777 341.911 330.383 343.919L333.057 352.77L327.827 353.949L322.144 335.136L326.139 334.236L327.569 336.484L327.861 336.418C328.076 335.675 328.425 335.033 328.909 334.492C329.405 333.949 329.995 333.499 330.68 333.141C331.377 332.78 332.126 332.509 332.926 332.329Z" fill="white"/>
<path d="M359.74 340.407C360.29 340.206 360.8 339.958 361.269 339.662C361.749 339.362 362.212 339.038 362.657 338.689L364.298 342.326C363.864 342.758 363.279 343.196 362.543 343.639C361.823 344.088 360.99 344.486 360.043 344.832C358.942 345.234 357.874 345.425 356.84 345.404C355.811 345.369 354.851 345.017 353.959 344.347C353.073 343.663 352.284 342.552 351.59 341.013L347.695 332.376L345.284 333.257L344.352 331.19L346.388 328.542L346.136 324.23L349.356 323.054L351.076 326.868L356.244 324.981L357.899 328.65L352.731 330.537L356.626 339.174C356.934 339.858 357.364 340.298 357.914 340.495C358.471 340.678 359.079 340.649 359.74 340.407Z" fill="white"/>
<path d="M382.2 322.74C383.056 324.14 383.617 325.482 383.882 326.766C384.158 328.046 384.15 329.254 383.86 330.393C383.574 331.515 383.022 332.539 382.203 333.464C381.395 334.383 380.336 335.183 379.025 335.863C377.798 336.499 376.553 336.895 375.291 337.049C374.039 337.198 372.807 337.099 371.595 336.753C370.387 336.392 369.245 335.78 368.168 334.916C367.102 334.047 366.141 332.912 365.285 331.513C364.147 329.653 363.527 327.901 363.425 326.255C363.323 324.61 363.701 323.123 364.561 321.795C365.42 320.467 366.729 319.347 368.487 318.435C370.12 317.588 371.771 317.173 373.44 317.19C375.119 317.202 376.711 317.666 378.218 318.583C379.735 319.495 381.062 320.881 382.2 322.74ZM370.138 328.996C370.81 330.095 371.501 330.955 372.209 331.576C372.918 332.196 373.653 332.558 374.416 332.663C375.179 332.768 375.987 332.599 376.84 332.157C377.683 331.72 378.248 331.176 378.536 330.527C378.834 329.872 378.873 329.107 378.654 328.233C378.445 327.354 378.004 326.365 377.331 325.265C376.653 324.156 375.965 323.301 375.269 322.7C374.577 322.085 373.853 321.73 373.096 321.635C372.339 321.54 371.534 321.714 370.681 322.156C369.422 322.809 368.761 323.699 368.696 324.825C368.642 325.946 369.123 327.336 370.138 328.996Z" fill="white"/>
<path d="M389.813 304.741C390.033 304.587 390.299 304.422 390.608 304.248C390.92 304.057 391.182 303.916 391.394 303.825L394.203 307.983C394.023 308.038 393.791 308.151 393.507 308.321C393.227 308.475 392.99 308.62 392.798 308.755C392.232 309.152 391.735 309.607 391.308 310.121C390.89 310.629 390.595 311.186 390.422 311.793C390.241 312.392 390.227 313.03 390.38 313.708C390.536 314.371 390.903 315.063 391.481 315.786L397.729 323.597L393.34 326.676L381.064 311.329L384.388 308.997L387.1 311.124L387.316 310.972C387.215 310.228 387.228 309.477 387.354 308.717C387.482 307.941 387.746 307.213 388.145 306.533C388.547 305.837 389.103 305.24 389.813 304.741Z" fill="white"/>
<path d="M404.489 307.232L403.569 306.312C403.005 305.749 402.59 305.178 402.324 304.598C402.05 304.01 401.901 303.357 401.877 302.638C401.844 301.911 401.921 301.07 402.107 300.114C402.282 299.263 402.385 298.548 402.417 297.968C402.457 297.38 402.411 296.878 402.277 296.463C402.143 296.032 401.894 295.635 401.529 295.27C400.99 294.732 400.371 294.51 399.671 294.606C398.971 294.701 398.247 295.086 397.499 295.761C396.75 296.435 396.118 297.218 395.602 298.109C395.095 298.992 394.645 299.957 394.253 301.004L390.106 299.566C390.512 298.318 391.083 297.094 391.819 295.894C392.547 294.686 393.516 293.537 394.726 292.446C396.589 290.767 398.456 289.894 400.328 289.829C402.201 289.748 403.793 290.361 405.103 291.67C405.799 292.365 406.287 293.076 406.566 293.801C406.846 294.51 406.97 295.296 406.94 296.159C406.91 297.005 406.787 297.982 406.572 299.09C406.415 299.926 406.321 300.593 406.291 301.092C406.262 301.592 406.319 302.013 406.463 302.356C406.608 302.682 406.854 303.019 407.203 303.367L407.949 304.112L404.489 307.232ZM408.326 311.856C407.546 311.078 407.221 310.331 407.35 309.616C407.487 308.894 407.873 308.246 408.509 307.673C409.127 307.116 409.815 306.794 410.574 306.709C411.342 306.615 412.115 306.958 412.895 307.736C413.641 308.482 413.954 309.224 413.833 309.963C413.721 310.695 413.356 311.339 412.738 311.896C412.103 312.469 411.393 312.794 410.608 312.871C409.833 312.94 409.072 312.601 408.326 311.856Z" fill="white"/>
<defs>
<filter id="filter0_d_42_86" x="123.794" y="10.0447" width="332.483" height="332.483" filterUnits="userSpaceOnUse" color-interpolation-filters="sRGB">
<feFlood flood-opacity="0" result="BackgroundImageFix"/>
<feColorMatrix in="SourceAlpha" type="matrix" values="0 0 0 0 0 0 0 0 0 0 0 0 0 0 0 0 0 0 127 0" result="hardAlpha"/>
<feOffset/>
<feGaussianBlur stdDeviation="15"/>
<feComposite in2="hardAlpha" operator="out"/>
<feColorMatrix type="matrix" values="0 0 0 0 0.0117647 0 0 0 0 0.501961 0 0 0 0 1 0 0 0 0.56 0"/>
<feBlend mode="normal" in2="BackgroundImageFix" result="effect1_dropShadow_42_86"/>
<feBlend mode="normal" in="SourceGraphic" in2="effect1_dropShadow_42_86" result="shape"/>
</filter>
</defs>
</svg>
